{
    "asset" : {
        "generator" : "Khronos glTF Blender I/O v3.4.50",
        "version" : "2.0"
    },
    "scene" : 0,
    "scenes" : [
        {
            "name" : "Scene",
            "nodes" : [
                0
            ]
        }
    ],
    "nodes" : [
        {
            "mesh" : 0,
            "name" : "Curve.002",
            "rotation" : [
                0.7071068286895752,
                0,
                0,
                0.7071067690849304
            ],
            "scale" : [
                9.520379066467285,
                9.520379066467285,
                9.520379066467285
            ],
            "translation" : [
                -1.437331199645996,
                -0.7449243664741516,
                -0.0028825923800468445
            ]
        }
    ],
    "materials" : [
        {
            "doubleSided" : true,
            "name" : "Metal.001",
            "pbrMetallicRoughness" : {
                "roughnessFactor" : 0.15454545617103577
            }
        },
        {
            "doubleSided" : true,
            "name" : "Metal",
            "pbrMetallicRoughness" : {}
        }
    ],
    "meshes" : [
        {
            "name" : "Curve.002",
            "primitives" : [
                {
                    "attributes" : {
                        "POSITION" : 0,
                        "TEXCOORD_0" : 1,
                        "TEXCOORD_1" : 2,
                        "NORMAL" : 3
                    },
                    "indices" : 4,
                    "material" : 0
                },
                {
                    "attributes" : {
                        "POSITION" : 5,
                        "TEXCOORD_0" : 6,
                        "TEXCOORD_1" : 7,
                        "NORMAL" : 8
                    },
                    "indices" : 9,
                    "material" : 1
                }
            ]
        }
    ],
    "accessors" : [
        {
            "bufferView" : 0,
            "componentType" : 5126,
            "count" : 3569,
            "max" : [
                0.2227625548839569,
                0.00985697377473116,
                -0.07728593051433563
            ],
            "min" : [
                0.08167676627635956,
                -0.0011149701895192266,
                -0.24585331976413727
            ],
            "type" : "VEC3"
        },
        {
            "bufferView" : 1,
            "componentType" : 5126,
            "count" : 3569,
            "type" : "VEC2"
        },
        {
            "bufferView" : 2,
            "componentType" : 5126,
            "count" : 3569,
            "type" : "VEC2"
        },
        {
            "bufferView" : 3,
            "componentType" : 5126,
            "count" : 3569,
            "type" : "VEC3"
        },
        {
            "bufferView" : 4,
            "componentType" : 5123,
            "count" : 5109,
            "type" : "SCALAR"
        },
        {
            "bufferView" : 5,
            "componentType" : 5126,
            "count" : 1350,
            "max" : [
                0.17723916471004486,
                0.009588872082531452,
                -0.07570578157901764
            ],
            "min" : [
                0.11735038459300995,
                2.6896096578005895e-16,
                -0.2115134298801422
            ],
            "type" : "VEC3"
        },
        {
            "bufferView" : 6,
            "componentType" : 5126,
            "count" : 1350,
            "type" : "VEC2"
        },
        {
            "bufferView" : 7,
            "componentType" : 5126,
            "count" : 1350,
            "type" : "VEC2"
        },
        {
            "bufferView" : 8,
            "componentType" : 5126,
            "count" : 1350,
            "type" : "VEC3"
        },
        {
            "bufferView" : 9,
            "componentType" : 5123,
            "count" : 1794,
            "type" : "SCALAR"
        }
    ],
    "bufferViews" : [
        {
            "buffer" : 0,
            "byteLength" : 42828,
            "byteOffset" : 0,
            "target" : 34962
        },
        {
            "buffer" : 0,
            "byteLength" : 28552,
            "byteOffset" : 42828,
            "target" : 34962
        },
        {
            "buffer" : 0,
            "byteLength" : 28552,
            "byteOffset" : 71380,
            "target" : 34962
        },
        {
            "buffer" : 0,
            "byteLength" : 42828,
            "byteOffset" : 99932,
            "target" : 34962
        },
        {
            "buffer" : 0,
            "byteLength" : 10218,
            "byteOffset" : 142760,
            "target" : 34963
        },
        {
            "buffer" : 0,
            "byteLength" : 16200,
            "byteOffset" : 152980,
            "target" : 34962
        },
        {
            "buffer" : 0,
            "byteLength" : 10800,
            "byteOffset" : 169180,
            "target" : 34962
        },
        {
            "buffer" : 0,
            "byteLength" : 10800,
            "byteOffset" : 179980,
            "target" : 34962
        },
        {
            "buffer" : 0,
            "byteLength" : 16200,
            "byteOffset" : 190780,
            "target" : 34962
        },
        {
            "buffer" : 0,
            "byteLength" : 3588,
            "byteOffset" : 206980,
            "target" : 34963
        }
    ],
    "buffers" : [
        {
            "byteLength" : 210568,
            "uri" : "data:application/octet-stream;base64,"
        }
    ]
}
